<mxfile host="app.diagrams.net" modified="2022-01-17T12:50:24.070Z" agent="5.0 (Windows)" etag="0ImZf8-tlZnB_90SGLe7" version="16.2.7" type="github">
  <diagram id="C5RBs43oDa-KdzZeNtuy" name="Page-1">
    <mxGraphModel dx="942" dy="564" grid="1" gridSize="10" guides="1" tooltips="1" connect="1" arrows="1" fold="1" page="1" pageScale="1" pageWidth="1169" pageHeight="827" math="0" shadow="0">
      <root>
        <mxCell id="WIyWlLk6GJQsqaUBKTNV-0" />
        <mxCell id="WIyWlLk6GJQsqaUBKTNV-1" parent="WIyWlLk6GJQsqaUBKTNV-0" />
        <mxCell id="JNPwkmlDs6uKcqjjOvbe-81" value="" style="group;fontFamily=微軟正黑體;fontSize=20;" parent="WIyWlLk6GJQsqaUBKTNV-1" vertex="1" connectable="0">
          <mxGeometry x="60" y="50" width="1050" height="700" as="geometry" />
        </mxCell>
        <mxCell id="mLTppHVD_9ZPHQQd_vt6-0" value="" style="swimlane;startSize=0;fontFamily=微軟正黑體;fontSize=20;" parent="JNPwkmlDs6uKcqjjOvbe-81" vertex="1">
          <mxGeometry x="32.55813953488372" y="173.26732673267327" width="271.3178294573643" height="526.7326732673267" as="geometry" />
        </mxCell>
        <mxCell id="WIyWlLk6GJQsqaUBKTNV-3" value="GET /logout" style="rounded=1;html=1;fontSize=20;glass=0;strokeWidth=1;shadow=0;fontFamily=微軟正黑體;spacing=4;" parent="mLTppHVD_9ZPHQQd_vt6-0" vertex="1">
          <mxGeometry x="47.44356589147287" y="83.16831683168317" width="180" height="60" as="geometry" />
        </mxCell>
        <mxCell id="JNPwkmlDs6uKcqjjOvbe-14" value="Login page" style="rounded=1;html=1;fontSize=20;glass=0;strokeWidth=1;shadow=0;fontFamily=微軟正黑體;spacing=4;" parent="mLTppHVD_9ZPHQQd_vt6-0" vertex="1">
          <mxGeometry x="47.44356589147287" y="221.78217821782178" width="180" height="60" as="geometry" />
        </mxCell>
        <mxCell id="mLTppHVD_9ZPHQQd_vt6-1" value="" style="swimlane;startSize=0;fontFamily=微軟正黑體;fontSize=20;" parent="JNPwkmlDs6uKcqjjOvbe-81" vertex="1">
          <mxGeometry x="412.4031007751938" y="173.26732673267327" width="271.3178294573643" height="526.7326732673267" as="geometry" />
        </mxCell>
        <mxCell id="CryrlxAnHtjtJJAdLKte-1" value="" style="edgeStyle=none;rounded=0;orthogonalLoop=1;jettySize=auto;html=1;" parent="mLTppHVD_9ZPHQQd_vt6-1" source="WIyWlLk6GJQsqaUBKTNV-11" target="JNPwkmlDs6uKcqjjOvbe-9" edge="1">
          <mxGeometry relative="1" as="geometry" />
        </mxCell>
        <mxCell id="WIyWlLk6GJQsqaUBKTNV-11" value="&lt;div style=&quot;font-size: 20px&quot;&gt;passport-strategy&lt;/div&gt;&lt;div style=&quot;font-size: 20px&quot;&gt;反序列出 user&lt;br&gt;&lt;/div&gt;" style="rounded=1;html=1;fontSize=20;glass=0;strokeWidth=1;shadow=0;fontFamily=微軟正黑體;spacing=4;" parent="mLTppHVD_9ZPHQQd_vt6-1" vertex="1">
          <mxGeometry x="47.44356589147287" y="83.16831683168317" width="180" height="60" as="geometry" />
        </mxCell>
        <mxCell id="JNPwkmlDs6uKcqjjOvbe-9" value="&lt;div style=&quot;font-size: 20px&quot;&gt;從 session 中&lt;br&gt;&lt;/div&gt;&lt;div style=&quot;font-size: 20px&quot;&gt;移除 user&lt;br style=&quot;font-size: 20px&quot;&gt;&lt;/div&gt;" style="rounded=1;html=1;fontSize=20;glass=0;strokeWidth=1;shadow=0;fontFamily=微軟正黑體;spacing=4;" parent="mLTppHVD_9ZPHQQd_vt6-1" vertex="1">
          <mxGeometry x="47.44356589147287" y="221.78217821782178" width="180" height="60" as="geometry" />
        </mxCell>
        <mxCell id="mLTppHVD_9ZPHQQd_vt6-2" value="" style="swimlane;startSize=0;fontFamily=微軟正黑體;fontSize=20;" parent="JNPwkmlDs6uKcqjjOvbe-81" vertex="1">
          <mxGeometry x="778.6821705426356" y="173.26732673267327" width="271.3178294573643" height="526.7326732673267" as="geometry" />
        </mxCell>
        <mxCell id="mLTppHVD_9ZPHQQd_vt6-4" style="edgeStyle=orthogonalEdgeStyle;rounded=0;orthogonalLoop=1;jettySize=auto;html=1;entryX=0;entryY=0.5;entryDx=0;entryDy=0;fontSize=20;fontFamily=微軟正黑體;" parent="JNPwkmlDs6uKcqjjOvbe-81" source="WIyWlLk6GJQsqaUBKTNV-3" target="WIyWlLk6GJQsqaUBKTNV-11" edge="1">
          <mxGeometry relative="1" as="geometry" />
        </mxCell>
        <mxCell id="JNPwkmlDs6uKcqjjOvbe-2" value="cookie" style="text;html=1;align=center;verticalAlign=middle;resizable=0;points=[];autosize=1;strokeColor=#d6b656;fillColor=#fff2cc;fontSize=20;fontFamily=微軟正黑體;" parent="JNPwkmlDs6uKcqjjOvbe-81" vertex="1">
          <mxGeometry x="320.00007751937983" y="237.57425742574256" width="80" height="30" as="geometry" />
        </mxCell>
        <mxCell id="JNPwkmlDs6uKcqjjOvbe-11" value="&lt;font style=&quot;font-size: 26px;&quot;&gt;Web browser&lt;/font&gt;" style="text;html=1;align=center;verticalAlign=middle;resizable=0;points=[];autosize=1;fontSize=26;fontFamily=微軟正黑體;" parent="JNPwkmlDs6uKcqjjOvbe-81" vertex="1">
          <mxGeometry x="78.21875968992248" y="107.82178217821783" width="180" height="40" as="geometry" />
        </mxCell>
        <mxCell id="JNPwkmlDs6uKcqjjOvbe-12" value="&lt;font style=&quot;font-size: 26px;&quot;&gt;Server&lt;/font&gt;" style="text;html=1;align=center;verticalAlign=middle;resizable=0;points=[];autosize=1;fontSize=26;fontFamily=微軟正黑體;" parent="JNPwkmlDs6uKcqjjOvbe-81" vertex="1">
          <mxGeometry x="503.0613953488372" y="107.82178217821783" width="90" height="40" as="geometry" />
        </mxCell>
        <mxCell id="JNPwkmlDs6uKcqjjOvbe-13" value="&lt;font style=&quot;font-size: 26px;&quot;&gt;Database&lt;/font&gt;" style="text;html=1;align=center;verticalAlign=middle;resizable=0;points=[];autosize=1;fontSize=26;fontFamily=微軟正黑體;" parent="JNPwkmlDs6uKcqjjOvbe-81" vertex="1">
          <mxGeometry x="849.3416279069768" y="107.82178217821783" width="130" height="40" as="geometry" />
        </mxCell>
        <mxCell id="JNPwkmlDs6uKcqjjOvbe-16" style="edgeStyle=orthogonalEdgeStyle;rounded=0;orthogonalLoop=1;jettySize=auto;html=1;entryX=1;entryY=0.5;entryDx=0;entryDy=0;fontSize=20;fontFamily=微軟正黑體;" parent="JNPwkmlDs6uKcqjjOvbe-81" source="JNPwkmlDs6uKcqjjOvbe-9" target="JNPwkmlDs6uKcqjjOvbe-14" edge="1">
          <mxGeometry relative="1" as="geometry" />
        </mxCell>
        <mxCell id="JNPwkmlDs6uKcqjjOvbe-17" value="redirect" style="text;html=1;align=center;verticalAlign=middle;resizable=0;points=[];autosize=1;strokeColor=#d6b656;fillColor=#fff2cc;fontSize=20;fontFamily=微軟正黑體;" parent="JNPwkmlDs6uKcqjjOvbe-81" vertex="1">
          <mxGeometry x="314.9989147286821" y="376.18811881188117" width="90" height="30" as="geometry" />
        </mxCell>
        <mxCell id="JNPwkmlDs6uKcqjjOvbe-26" value="&lt;div style=&quot;font-size: 30px&quot;&gt;&lt;font style=&quot;font-size: 30px&quot;&gt;登出&lt;/font&gt;&lt;/div&gt;" style="text;html=1;align=center;verticalAlign=middle;resizable=0;points=[];autosize=1;fillColor=#647687;strokeColor=#314354;spacing=8;spacingBottom=2;spacingTop=2;fontColor=#ffffff;spacingLeft=4;spacingRight=4;fontFamily=微軟正黑體;fontSize=30;" parent="JNPwkmlDs6uKcqjjOvbe-81" vertex="1">
          <mxGeometry x="10" y="-5" width="100" height="60" as="geometry" />
        </mxCell>
      </root>
    </mxGraphModel>
  </diagram>
</mxfile>
